<svg width="267" height="36" viewBox="0 0 267 36" fill="none" xmlns="http://www.w3.org/2000/svg">
<g clip-path="url(#clip0_2035_5293)">
<path fill-rule="evenodd" clip-rule="evenodd" d="M32 14.3721V23.3023H34.8033C35.0979 23.3023 35.3895 23.3601 35.6616 23.4723C35.9337 23.5845 36.1809 23.7489 36.3891 23.9562C36.5974 24.1635 36.7626 24.4097 36.8753 24.6805C36.988 24.9514 37.046 25.2417 37.046 25.5349V28.3256H43.7741L52.1841 19.9535V11.0233H49.3808C49.0862 11.0233 48.7946 10.9655 48.5225 10.8533C48.2504 10.7411 48.0032 10.5767 47.795 10.3694C47.5867 10.162 47.4215 9.91592 47.3087 9.64506C47.1961 9.3742 47.1381 9.08389 47.1381 8.7907V6H40.41L32 14.3721ZM41.5314 22.7442H37.6067V16.6047L42.6527 11.5814H46.5774V17.7209L41.5314 22.7442Z" fill="white"/>
<path d="M161.272 12.8348C162.689 12.8348 163.827 13.2702 164.688 14.1409C165.563 14.9978 166 16.2002 166 17.7481V24.4857H163.084V18.142C163.084 17.2436 162.855 16.5595 162.397 16.0896C161.939 15.6059 161.314 15.364 160.523 15.364C159.732 15.364 159.1 15.6059 158.628 16.0896C158.17 16.5595 157.941 17.2436 157.941 18.142V24.4857H155.025V18.142C155.025 17.2436 154.796 16.5595 154.338 16.0896C153.88 15.6059 153.255 15.364 152.464 15.364C151.659 15.364 151.02 15.6059 150.548 16.0896C150.09 16.5595 149.861 17.2436 149.861 18.142V24.4857H146.945V13.0007H149.861V14.3896C150.236 13.906 150.714 13.5259 151.298 13.2495C151.895 12.973 152.547 12.8348 153.255 12.8348C154.158 12.8348 154.963 13.0283 155.671 13.4153C156.379 13.7885 156.927 14.3275 157.316 15.0323C157.691 14.3689 158.232 13.8368 158.94 13.436C159.662 13.0352 160.44 12.8348 161.272 12.8348Z" fill="white"/>
<path d="M144.797 13.0007V24.4858H141.861V23.0346C141.486 23.5322 140.993 23.926 140.382 24.2163C139.785 24.4927 139.133 24.6309 138.425 24.6309C137.522 24.6309 136.724 24.4443 136.03 24.0711C135.336 23.6842 134.788 23.1244 134.385 22.3919C133.996 21.6456 133.802 20.7611 133.802 19.7384V13.0007H136.717V19.3237C136.717 20.2359 136.946 20.9408 137.404 21.4383C137.863 21.922 138.487 22.1639 139.278 22.1639C140.084 22.1639 140.715 21.922 141.174 21.4383C141.632 20.9408 141.861 20.2359 141.861 19.3237V13.0007H144.797Z" fill="white"/>
<path d="M127.702 24.6723C126.758 24.6723 125.91 24.5064 125.161 24.1747C124.411 23.8292 123.814 23.3662 123.37 22.7858C122.939 22.2053 122.703 21.5626 122.662 20.8578H125.598C125.654 21.3 125.869 21.6663 126.244 21.9565C126.633 22.2468 127.111 22.3919 127.68 22.3919C128.236 22.3919 128.667 22.2813 128.972 22.0602C129.291 21.839 129.451 21.5557 129.451 21.2102C129.451 20.8371 129.257 20.5606 128.868 20.381C128.493 20.1875 127.889 19.9802 127.056 19.759C126.195 19.5517 125.487 19.3375 124.932 19.1164C124.39 18.8952 123.918 18.5566 123.516 18.1006C123.127 17.6444 122.933 17.0294 122.933 16.2555C122.933 15.6197 123.113 15.0393 123.474 14.5141C123.849 13.9889 124.376 13.5743 125.057 13.2702C125.751 12.9661 126.563 12.8141 127.493 12.8141C128.868 12.8141 129.965 13.1596 130.784 13.8507C131.603 14.5279 132.054 15.4469 132.137 16.6079H129.347C129.305 16.1518 129.111 15.7925 128.764 15.5299C128.431 15.2535 127.979 15.1152 127.41 15.1152C126.883 15.1152 126.473 15.212 126.181 15.4055C125.904 15.599 125.765 15.8685 125.765 16.214C125.765 16.601 125.959 16.8982 126.348 17.1055C126.737 17.299 127.341 17.4993 128.16 17.7066C128.992 17.914 129.68 18.1282 130.221 18.3493C130.763 18.5705 131.228 18.9159 131.617 19.3858C132.019 19.842 132.228 20.45 132.242 21.2102C132.242 21.8736 132.054 22.4679 131.679 22.9931C131.318 23.5183 130.791 23.9329 130.096 24.237C129.416 24.5272 128.618 24.6723 127.702 24.6723Z" fill="white"/>
<path d="M112.817 14.6592C113.192 14.134 113.706 13.6986 114.358 13.3531C115.025 12.9938 115.781 12.8141 116.628 12.8141C117.614 12.8141 118.502 13.056 119.294 13.5397C120.099 14.0234 120.73 14.7144 121.189 15.6128C121.661 16.4974 121.897 17.527 121.897 18.7017C121.897 19.8765 121.661 20.9199 121.189 21.8321C120.73 22.7305 120.099 23.4285 119.294 23.926C118.502 24.4235 117.614 24.6723 116.628 24.6723C115.781 24.6723 115.032 24.4995 114.379 24.154C113.741 23.8085 113.22 23.3731 112.817 22.848V29.9587H109.902V13.0007H112.817V14.6592ZM118.919 18.7017C118.919 18.0107 118.773 17.4164 118.482 16.9189C118.204 16.4075 117.829 16.0205 117.357 15.7579C116.899 15.4953 116.399 15.3641 115.858 15.3641C115.33 15.3641 114.831 15.5023 114.358 15.7786C113.9 16.0412 113.525 16.4282 113.234 16.9396C112.956 17.4509 112.817 18.0522 112.817 18.7432C112.817 19.4342 112.956 20.0355 113.234 20.5468C113.525 21.0582 113.9 21.4521 114.358 21.7285C114.831 21.9911 115.33 22.1224 115.858 22.1224C116.399 22.1224 116.899 21.9842 117.357 21.7078C117.829 21.4313 118.204 21.0374 118.482 20.5261C118.773 20.0147 118.919 19.4066 118.919 18.7017Z" fill="white"/>
<path d="M106.313 11.6325C105.799 11.6325 105.369 11.4735 105.022 11.1556C104.689 10.8239 104.522 10.4162 104.522 9.93249C104.522 9.44877 104.689 9.04797 105.022 8.73009C105.369 8.3984 105.799 8.23254 106.313 8.23254C106.827 8.23254 107.25 8.3984 107.583 8.73009C107.93 9.04797 108.104 9.44877 108.104 9.93249C108.104 10.4162 107.93 10.8239 107.583 11.1556C107.25 11.4735 106.827 11.6325 106.313 11.6325ZM107.75 13.0007V24.4857H104.834V13.0007H107.75Z" fill="white"/>
<path d="M97.406 24.6723C96.2953 24.6723 95.2962 24.4304 94.4076 23.9467C93.5189 23.4492 92.8181 22.7512 92.3039 21.8529C91.8044 20.9546 91.5543 19.918 91.5543 18.7432C91.5543 17.5684 91.8111 16.5319 92.3247 15.6335C92.8523 14.7352 93.5677 14.0442 94.4698 13.5604C95.3725 13.0629 96.3789 12.8141 97.4896 12.8141C98.6003 12.8141 99.6067 13.0629 100.509 13.5604C101.411 14.0442 102.12 14.7352 102.633 15.6335C103.161 16.5319 103.425 17.5684 103.425 18.7432C103.425 19.918 103.154 20.9546 102.612 21.8529C102.085 22.7512 101.363 23.4492 100.447 23.9467C99.5444 24.4304 98.5307 24.6723 97.406 24.6723ZM97.406 22.1431C97.9336 22.1431 98.4264 22.0187 98.8851 21.7699C99.3572 21.5073 99.7317 21.1204 100.009 20.609C100.287 20.0976 100.426 19.4757 100.426 18.7432C100.426 17.6514 100.134 16.8152 99.5511 16.2348C98.9821 15.6404 98.2807 15.3433 97.4481 15.3433C96.6149 15.3433 95.9141 15.6404 95.3444 16.2348C94.7894 16.8152 94.5119 17.6514 94.5119 18.7432C94.5119 19.835 94.7821 20.6781 95.3237 21.2724C95.8793 21.8529 96.5734 22.1431 97.406 22.1431Z" fill="white"/>
<path d="M84.8551 24.6723C83.7444 24.6723 82.7449 24.4304 81.8563 23.9467C80.9678 23.4492 80.2667 22.7512 79.753 21.8529C79.2532 20.9546 79.0033 19.918 79.0033 18.7432C79.0033 17.5684 79.2601 16.5319 79.7738 15.6335C80.3014 14.7352 81.0164 14.0442 81.9188 13.5604C82.8212 13.0629 83.8277 12.8141 84.9384 12.8141C86.0491 12.8141 87.0556 13.0629 87.9581 13.5604C88.8603 14.0442 89.5684 14.7352 90.082 15.6335C90.6096 16.5319 90.8737 17.5684 90.8737 18.7432C90.8737 19.918 90.6029 20.9546 90.0613 21.8529C89.5337 22.7512 88.8121 23.4492 87.8956 23.9467C86.9932 24.4304 85.9797 24.6723 84.8551 24.6723ZM84.8551 22.1431C85.3827 22.1431 85.8755 22.0187 86.3337 21.7699C86.8057 21.5073 87.1806 21.1204 87.4582 20.609C87.7359 20.0976 87.8748 19.4757 87.8748 18.7432C87.8748 17.6514 87.5832 16.8152 87.0001 16.2348C86.4309 15.6404 85.7298 15.3433 84.8968 15.3433C84.0638 15.3433 83.3627 15.6404 82.7934 16.2348C82.2381 16.8152 81.9604 17.6514 81.9604 18.7432C81.9604 19.835 82.2312 20.6781 82.7726 21.2724C83.328 21.8529 84.0221 22.1431 84.8551 22.1431Z" fill="white"/>
<path d="M72.304 24.6723C71.1933 24.6723 70.1937 24.4304 69.3052 23.9467C68.4166 23.4492 67.7155 22.7512 67.2018 21.8529C66.702 20.9546 66.4521 19.918 66.4521 18.7432C66.4521 17.5684 66.709 16.5319 67.2227 15.6335C67.7502 14.7352 68.4652 14.0442 69.3676 13.5604C70.27 13.0629 71.2766 12.8141 72.3873 12.8141C73.4979 12.8141 74.5045 13.0629 75.4069 13.5604C76.3093 14.0442 77.0173 14.7352 77.531 15.6335C78.0586 16.5319 78.3224 17.5684 78.3224 18.7432C78.3224 19.918 78.0517 20.9546 77.5102 21.8529C76.9826 22.7512 76.2607 23.4492 75.3444 23.9467C74.442 24.4304 73.4285 24.6723 72.304 24.6723ZM72.304 22.1431C72.8316 22.1431 73.3244 22.0187 73.7826 21.7699C74.2546 21.5073 74.6295 21.1204 74.9071 20.609C75.1847 20.0976 75.3236 19.4757 75.3236 18.7432C75.3236 17.6514 75.0321 16.8152 74.4489 16.2348C73.8797 15.6404 73.1786 15.3433 72.3456 15.3433C71.5126 15.3433 70.8115 15.6404 70.2423 16.2348C69.6869 16.8152 69.4093 17.6514 69.4093 18.7432C69.4093 19.835 69.68 20.6781 70.2215 21.2724C70.7768 21.8529 71.471 22.1431 72.304 22.1431Z" fill="white"/>
<path d="M61.2669 22.1846H66.0567V24.4857H58.3514V10.0154H61.2669V22.1846Z" fill="white"/>
<path d="M79.7725 26.0284C80.511 28.2147 82.5867 29.7896 85.0319 29.7896H85.3362C88.4 29.7896 90.8838 27.3171 90.8838 24.2671V23.9551H87.8761V24.2671C87.8761 25.6636 86.739 26.7956 85.3362 26.7956H85.0319C84.317 26.7956 83.671 26.5016 83.2095 26.0284H79.7725Z" fill="white"/>
</g>
<defs>
<clipPath id="clip0_2035_5293">
<rect width="134" height="24" fill="white" transform="translate(32 6)"/>
</clipPath>
</defs>
</svg>
